<?xml version="1.0" standalone="no"?><!DOCTYPE svg PUBLIC "-//W3C//DTD SVG 1.1//EN" "http://www.w3.org/Graphics/SVG/1.1/DTD/svg11.dtd"><svg t="1706803809084" class="icon" viewBox="0 0 1024 1024" version="1.1" xmlns="http://www.w3.org/2000/svg" p-id="14726" xmlns:xlink="http://www.w3.org/1999/xlink" width="200" height="200"><path d="M896 866.133333H128c-25.6 0-42.666667-17.066667-42.666667-42.666666s17.066667-42.666667 42.666667-42.666667h768c25.6 0 42.666667 17.066667 42.666667 42.666667 0 21.333333-17.066667 42.666667-42.666667 42.666666zM840.533333 221.866667c-25.6-12.8-76.8-38.4-153.6-38.4-51.2 0-110.933333 12.8-174.933333 46.933333-64 34.133333-123.733333 46.933333-174.933333 46.933333-59.733333 0-106.666667-17.066667-132.266667-29.866666h-8.533333c-12.8-4.266667-25.6 8.533333-25.6 25.6v439.466666c0 12.8 8.533333 25.6 25.6 25.6h635.733333c12.8 0 25.6-12.8 25.6-25.6v-469.333333c-4.266667-8.533333-8.533333-17.066667-17.066667-21.333333zM337.066667 320c64 0 132.266667-17.066667 196.266666-51.2 51.2-29.866667 102.4-42.666667 153.6-42.666667 55.466667 0 102.4 17.066667 123.733334 29.866667v140.8c-55.466667-25.6-166.4-51.2-298.666667 21.333333s-243.2 46.933333-298.666667 21.333334V298.666667c29.866667 8.533333 72.533333 21.333333 123.733334 21.333333z" p-id="14727"></path></svg>