<?xml version="1.0" standalone="no"?><!DOCTYPE svg PUBLIC "-//W3C//DTD SVG 1.1//EN" "http://www.w3.org/Graphics/SVG/1.1/DTD/svg11.dtd"><svg t="1706804186184" class="icon" viewBox="0 0 1024 1024" version="1.1" xmlns="http://www.w3.org/2000/svg" p-id="29799" xmlns:xlink="http://www.w3.org/1999/xlink" width="200" height="200"><path d="M725.333333 768v170.666667h170.666667v-170.666667h-42.666667v-85.333333c0-94.122667-76.544-170.666667-170.666666-170.666667h-128v-85.333333h85.333333a42.666667 42.666667 0 0 0 42.666667-42.666667V128a42.666667 42.666667 0 0 0-42.666667-42.666667H384a42.666667 42.666667 0 0 0-42.666667 42.666667v256a42.666667 42.666667 0 0 0 42.666667 42.666667h85.333333v85.333333H341.333333a170.794667 170.794667 0 0 0-170.496 166.869333A37.12 37.12 0 0 0 170.666667 682.666667v85.333333H128v170.666667h170.666667v-170.666667H256v-82.048A41.472 41.472 0 0 0 256.128 682.666667c0-47.061333 38.229333-85.333333 85.333333-85.333334H469.333333v170.666667h-42.666666v170.666667h170.666666v-170.666667h-42.666666v-170.666667h128c47.061333 0 85.333333 38.272 85.333333 85.333334v85.333333h-42.666667zM426.666667 341.333333V170.666667h170.666666v170.666666h-170.666666z" fill="#8a8a8a" p-id="29800"></path></svg>