<?xml version="1.0" standalone="no"?><!DOCTYPE svg PUBLIC "-//W3C//DTD SVG 1.1//EN" "http://www.w3.org/Graphics/SVG/1.1/DTD/svg11.dtd"><svg t="1706804126639" class="icon" viewBox="0 0 1024 1024" version="1.1" xmlns="http://www.w3.org/2000/svg" p-id="26973" xmlns:xlink="http://www.w3.org/1999/xlink" width="200" height="200"><path d="M298.65 138.65h-128a32 32 0 0 0-32 32v128c0 17.715 14.336 32 32 32h128c17.715 0 32-14.336 32-32v-128a32 32 0 0 0-32-32z m-32 64v64h-64v-64h64z m586.7-64h-128a32 32 0 0 0-32 32v128c0 17.715 14.336 32 32 32h128c17.664 0 32-14.336 32-32v-128a32 32 0 0 0-32-32z m-32 64v64h-64v-64h64z m32 490.7h-128a32 32 0 0 0-32 32v128c0 17.664 14.336 32 32 32h128c17.664 0 32-14.336 32-32v-128a32 32 0 0 0-32-32z m-32 64v64h-64v-64h64z m-522.7-64h-128a32 32 0 0 0-32 32v128c0 17.664 14.336 32 32 32h128c17.715 0 32-14.336 32-32v-128a32 32 0 0 0-32-32z m-32 64v64h-64v-64h64z m426.65-0.05v64H330.65v-64H693.3z m128-426.65V693.3h-64V330.65h64z m-554.65 0V693.3h-64V330.65h64z m426.65-128v64H330.65v-64H693.3zM361.37 361.37a32 32 0 0 1 41.676-3.072l3.584 3.072 256 256a32 32 0 0 1-41.676 48.332l-3.584-3.072-256-256a32 32 0 0 1 0-45.26z" fill="#8a8a8a" p-id="26974"></path><path d="M0 0h1024v1024H0z" fill="#8a8a8a" fill-opacity="0" p-id="26975"></path></svg>