<?xml version="1.0" standalone="no"?><!DOCTYPE svg PUBLIC "-//W3C//DTD SVG 1.1//EN" "http://www.w3.org/Graphics/SVG/1.1/DTD/svg11.dtd"><svg t="1695736492742" class="icon" viewBox="0 0 1024 1024" version="1.1" xmlns="http://www.w3.org/2000/svg" p-id="10035" xmlns:xlink="http://www.w3.org/1999/xlink" width="200" height="200"><path d="M746.666667 469.333333c-51.2 0-102.4 17.066667-145.066667 42.666667H85.333333c-46.933333 0-85.333333 38.4-85.333333 85.333333v256c0 46.933333 38.4 85.333333 85.333333 85.333334h460.8c17.066667 17.066667 38.4 34.133333 64 51.2 42.666667 25.6 89.6 34.133333 136.533334 34.133333 153.6 0 277.333333-123.733333 277.333333-277.333333S900.266667 469.333333 746.666667 469.333333zM85.333333 853.333333v-256h426.666667c-29.866667 42.666667-42.666667 93.866667-42.666667 149.333334 0 17.066667 0 29.866667 4.266667 46.933333 4.266667 21.333333 8.533333 42.666667 17.066667 59.733333H85.333333z m661.333334 85.333334c-34.133333 0-64-8.533333-93.866667-25.6-51.2-29.866667-85.333333-76.8-93.866667-136.533334 0-8.533333-4.266667-21.333333-4.266666-34.133333 0-46.933333 17.066667-93.866667 51.2-128 38.4-38.4 89.6-64 140.8-64 106.666667 0 192 85.333333 192 192S853.333333 938.666667 746.666667 938.666667z" p-id="10036"></path><path d="M823.466667 644.266667c-4.266667-8.533333-17.066667-17.066667-29.866667-17.066667h-93.866667c-12.8 0-21.333333 4.266667-29.866666 17.066667l-46.933334 85.333333c-4.266667 8.533333-4.266667 21.333333 0 29.866667l46.933334 85.333333c4.266667 8.533333 17.066667 17.066667 29.866666 17.066667h93.866667c12.8 0 21.333333-4.266667 29.866667-17.066667l46.933333-85.333333c4.266667-8.533333 4.266667-21.333333 0-29.866667l-46.933333-85.333333z m-46.933334 157.866666h-59.733333l-29.866667-55.466666 29.866667-55.466667h59.733333l29.866667 55.466667-29.866667 55.466666zM213.333333 170.666667h-21.333333c-25.6 0-42.666667 17.066667-42.666667 42.666666s17.066667 42.666667 42.666667 42.666667H213.333333c25.6 0 42.666667-17.066667 42.666667-42.666667s-17.066667-42.666667-42.666667-42.666666zM384 170.666667h-21.333333c-25.6 0-42.666667 17.066667-42.666667 42.666666s17.066667 42.666667 42.666667 42.666667H384c25.6 0 42.666667-17.066667 42.666667-42.666667s-17.066667-42.666667-42.666667-42.666666z" p-id="10037"></path><path d="M85.333333 426.666667h682.666667c46.933333 0 85.333333-38.4 85.333333-85.333334V85.333333c0-46.933333-38.4-85.333333-85.333333-85.333333H85.333333C38.4 0 0 38.4 0 85.333333v256c0 46.933333 38.4 85.333333 85.333333 85.333334z m0-341.333334h682.666667v256H85.333333V85.333333zM384 682.666667h-21.333333c-25.6 0-42.666667 17.066667-42.666667 42.666666s17.066667 42.666667 42.666667 42.666667H384c25.6 0 42.666667-17.066667 42.666667-42.666667s-17.066667-42.666667-42.666667-42.666666zM213.333333 682.666667h-21.333333c-25.6 0-42.666667 17.066667-42.666667 42.666666s17.066667 42.666667 42.666667 42.666667H213.333333c25.6 0 42.666667-17.066667 42.666667-42.666667s-17.066667-42.666667-42.666667-42.666666z" p-id="10038"></path></svg>